<?xml version="1.0" standalone="no"?><!-- Generator: Gravit.io --><svg xmlns="http://www.w3.org/2000/svg" xmlns:xlink="http://www.w3.org/1999/xlink" style="isolation:isolate" viewBox="0 0 100 100" width="100" height="100"><defs><clipPath id="_clipPath_xDMXC4ITgD0Il9IjOapD56wntH0jlWUz"><rect width="100" height="100"/></clipPath></defs><g clip-path="url(#_clipPath_xDMXC4ITgD0Il9IjOapD56wntH0jlWUz)"><defs><radialGradient id="_rgradient_0" fx="50.00000000000002%" fy="49.99999999999997%" cx="50%" cy="50%" r="50%"><stop offset="0%" style="stop-color:#FFFFFF"/><stop offset="98.26086956521739%" style="stop-color:#A279DF"/></radialGradient><radialGradient id="_rgradient_1" fx="50.00000000000002%" fy="49.99999999999997%" cx="50%" cy="50%" r="50%"><stop offset="0%" style="stop-color:#FFFFFF"/><stop offset="98.26086956521739%" style="stop-color:#A279DF"/></radialGradient></defs><path d="M 17.244 3.08 L 81.382 3.08 C 88.967 3.08 95.126 9.238 95.126 16.824 L 95.126 81.336 C 95.126 88.922 88.967 95.08 81.382 95.08 L 17.244 95.08 C 9.658 95.08 3.5 88.922 3.5 81.336 L 3.5 16.824 C 3.5 9.238 9.658 3.08 17.244 3.08 Z" style="stroke:none;fill:#573F7B;stroke-miterlimit:10;"/><g style="mix-blend-mode:darken;"><path d="M 17.244 3.08 L 81.382 3.08 C 88.967 3.08 95.126 9.238 95.126 16.824 L 95.126 81.336 C 95.126 88.922 88.967 95.08 81.382 95.08 L 17.244 95.08 C 9.658 95.08 3.5 88.922 3.5 81.336 L 3.5 16.824 C 3.5 9.238 9.658 3.08 17.244 3.08 Z" style="fill:none;stroke:#000000;stroke-width:2;stroke-linecap:square;stroke-miterlimit:3;"/></g><g transform="matrix(1,0,0,1,10.83,11.36)"><text transform="matrix(1,0,0,1,13.698,65.652)" style="font-family:&quot;Open Sans&quot;;font-weight:400;font-size:72px;font-style:normal;fill:#ffffff;stroke:none;">B</text></g><g transform="matrix(1,0,0,1,52.355,7)"><text transform="matrix(1,0,0,1,15.674,31.071)" style="font-family:&quot;San Francisco Text&quot;;font-weight:600;font-size:24px;font-style:normal;fill:#c9a5ff;stroke:none;">X</text></g></g></svg>